# xmcd CD database file
#
# Track frame offsets:
#	150
#	8268
#	17829
#	30793
#	55905
#	64292
#	78654
#	92961
#	106237
#	120485
#	127690
#	138436
#	150149
#	161380
#	175993
#	187551
#	201221
#	215811
#	230201
#	241926
#
# Disc length: 3406 seconds
#
# Revision: 0
# Processed by: cddbd v1.5.2PL0 Copyright (c) Steve Scherf et al.
# Submitted via: CDex 1.70beta2
#
DISCID=f40d4c14
DTITLE=Leadbelly - 20 Légendes du Blues CD 13
DYEAR=2008
DGENRE=Blues
TTITLE0=Irene
TTITLE1=Midnight Special
TTITLE2=Good Morning Blues
TTITLE3=Bourgeaois Blues
TTITLE4=On Monday
TTITLE5=Pigmeat
TTITLE6=Black Snake Moan
TTITLE7=See See Rider
TTITLE8=Alberta
TTITLE9=Take This Hammer
TTITLE10=Yellow Gal
TTITLE11=Little Sally Walker
TTITLE12=I Got A Pretty Flower
TTITLE13=Sail On Little Girl
TTITLE14=Rock Island Line
TTITLE15=Leaving Blues
TTITLE16=John Hardy
TTITLE17=I'm On My Last Go Round
TTITLE18=Fannin Street
TTITLE19=New York City
EXTD=YEAR: 2008
EXTT0=
EXTT1=
EXTT2=
EXTT3=
EXTT4=
EXTT5=
EXTT6=
EXTT7=
EXTT8=
EXTT9=
EXTT10=
EXTT11=
EXTT12=
EXTT13=
EXTT14=
EXTT15=
EXTT16=
EXTT17=
EXTT18=
EXTT19=
PLAYORDER=
